# xmcd
#
# Track frame offsets: 
#        150
#        15043
#        31796
#        50500
#        67499
#        76027
#        89257
#        105995
#        129801
#        151850
#        168875
#        183273
#        194211
#
# Disc length: 2846 seconds
#
# Revision: 0
# Processed by: cddbd v1.5.2PL0 Copyright (c) Steve Scherf et al.
# Submitted via: ExactAudioCopy v0.99pb3
#
DISCID=920b1c0d
DTITLE=Various Artist - Past Present Future - 3 years of ak Duck
DYEAR=2005
DGENRE=Ak Duck
TTITLE0=Maps And Diagrams - Ensa (Hidden)
TTITLE1=Or Burstein - Ten(ch).er Signs
TTITLE2=Roy Chicky Arad - Sputnik In Love (Mule Driver remix)
TTITLE3=Frederik Schikowski - Vollmond
TTITLE4=Nico Teen and Spark O - End Of The World
TTITLE5=Or Ben David - Synths Wanna Have Fun
TTITLE6=Gelbart - Minipops Tune
TTITLE7=Digital_Me - The Closet
TTITLE8=Nir Segev - We Don't Know
TTITLE9=Acute - Complicaat
TTITLE10=Mule Driver - Aenea
TTITLE11=Polish Butterfly feat. Nico Teen - 6 Days And 7 Nights
TTITLE12=Resses - Korean Commercial
EXTD=
EXTT0=
EXTT1=
EXTT2=
EXTT3=
EXTT4=
EXTT5=
EXTT6=
EXTT7=
EXTT8=
EXTT9=
EXTT10=
EXTT11=
EXTT12=
PLAYORDER=
